<svg xmlns="http://www.w3.org/2000/svg" xmlns:xlink="http://www.w3.org/1999/xlink" width="1000" zoomAndPan="magnify" viewBox="0 0 750 749.999995" height="1000" preserveAspectRatio="xMidYMid meet" version="1.0"><path fill="#34a853" d="M 475.109375 450 C 475.109375 450.820312 475.070312 451.636719 474.988281 452.449219 C 474.910156 453.265625 474.789062 454.074219 474.628906 454.878906 C 474.46875 455.679688 474.269531 456.472656 474.03125 457.257812 C 473.796875 458.039062 473.519531 458.8125 473.207031 459.566406 C 472.894531 460.324219 472.542969 461.0625 472.15625 461.785156 C 471.769531 462.507812 471.351562 463.207031 470.894531 463.890625 C 470.441406 464.570312 469.953125 465.226562 469.433594 465.859375 C 468.914062 466.492188 468.367188 467.097656 467.785156 467.675781 C 467.207031 468.257812 466.601562 468.804688 465.96875 469.324219 C 465.335938 469.84375 464.679688 470.332031 464 470.785156 C 463.316406 471.242188 462.617188 471.660156 461.894531 472.046875 C 461.171875 472.433594 460.433594 472.785156 459.675781 473.097656 C 458.921875 473.410156 458.148438 473.6875 457.367188 473.921875 C 456.582031 474.160156 455.789062 474.359375 454.988281 474.519531 C 454.183594 474.679688 453.375 474.800781 452.558594 474.878906 C 451.746094 474.960938 450.929688 475 450.109375 475 C 449.289062 475 448.472656 474.960938 447.660156 474.878906 C 446.84375 474.800781 446.035156 474.679688 445.230469 474.519531 C 444.429688 474.359375 443.636719 474.160156 442.851562 473.921875 C 442.070312 473.6875 441.296875 473.410156 440.542969 473.097656 C 439.785156 472.785156 439.046875 472.433594 438.324219 472.046875 C 437.601562 471.660156 436.902344 471.242188 436.21875 470.785156 C 435.539062 470.332031 434.882812 469.84375 434.25 469.324219 C 433.617188 468.804688 433.011719 468.257812 432.433594 467.675781 C 431.851562 467.097656 431.304688 466.492188 430.785156 465.859375 C 430.265625 465.226562 429.777344 464.570312 429.324219 463.890625 C 428.867188 463.207031 428.449219 462.507812 428.0625 461.785156 C 427.675781 461.0625 427.324219 460.324219 427.011719 459.566406 C 426.699219 458.8125 426.421875 458.039062 426.1875 457.257812 C 425.949219 456.472656 425.75 455.679688 425.589844 454.878906 C 425.429688 454.074219 425.308594 453.265625 425.230469 452.449219 C 425.148438 451.636719 425.109375 450.820312 425.109375 450 C 425.109375 449.179688 425.148438 448.363281 425.230469 447.550781 C 425.308594 446.734375 425.429688 445.925781 425.589844 445.121094 C 425.75 444.320312 425.949219 443.527344 426.1875 442.742188 C 426.421875 441.960938 426.699219 441.1875 427.011719 440.433594 C 427.324219 439.675781 427.675781 438.9375 428.0625 438.214844 C 428.449219 437.492188 428.867188 436.792969 429.324219 436.109375 C 429.777344 435.429688 430.265625 434.773438 430.785156 434.140625 C 431.304688 433.507812 431.851562 432.902344 432.433594 432.324219 C 433.011719 431.742188 433.617188 431.195312 434.25 430.675781 C 434.882812 430.15625 435.539062 429.667969 436.21875 429.214844 C 436.902344 428.757812 437.601562 428.339844 438.324219 427.953125 C 439.046875 427.566406 439.785156 427.214844 440.542969 426.902344 C 441.296875 426.589844 442.070312 426.3125 442.851562 426.078125 C 443.636719 425.839844 444.429688 425.640625 445.230469 425.480469 C 446.035156 425.320312 446.84375 425.199219 447.660156 425.121094 C 448.472656 425.039062 449.289062 425 450.109375 425 C 450.929688 425 451.746094 425.039062 452.558594 425.121094 C 453.375 425.199219 454.183594 425.320312 454.988281 425.480469 C 455.789062 425.640625 456.582031 425.839844 457.367188 426.078125 C 458.148438 426.3125 458.921875 426.589844 459.675781 426.902344 C 460.433594 427.214844 461.171875 427.566406 461.894531 427.953125 C 462.617188 428.339844 463.316406 428.757812 464 429.214844 C 464.679688 429.667969 465.335938 430.15625 465.96875 430.675781 C 466.601562 431.195312 467.207031 431.742188 467.785156 432.324219 C 468.367188 432.902344 468.914062 433.507812 469.433594 434.140625 C 469.953125 434.773438 470.441406 435.429688 470.894531 436.109375 C 471.351562 436.792969 471.769531 437.492188 472.15625 438.214844 C 472.542969 438.9375 472.894531 439.675781 473.207031 440.433594 C 473.519531 441.1875 473.796875 441.960938 474.03125 442.742188 C 474.269531 443.527344 474.46875 444.320312 474.628906 445.121094 C 474.789062 445.925781 474.910156 446.734375 474.988281 447.550781 C 475.070312 448.363281 475.109375 449.179688 475.109375 450 Z M 475.109375 450 " fill-opacity="1" fill-rule="nonzero"/><path fill="#4285f4" d="M 412.609375 387.5 C 412.609375 388.726562 412.550781 389.953125 412.429688 391.175781 C 412.308594 392.398438 412.128906 393.609375 411.890625 394.816406 C 411.648438 396.019531 411.351562 397.210938 410.996094 398.386719 C 410.636719 399.5625 410.226562 400.714844 409.753906 401.851562 C 409.285156 402.984375 408.761719 404.09375 408.179688 405.175781 C 407.601562 406.261719 406.972656 407.3125 406.289062 408.332031 C 405.605469 409.355469 404.875 410.339844 404.097656 411.289062 C 403.316406 412.238281 402.496094 413.148438 401.625 414.015625 C 400.757812 414.886719 399.847656 415.707031 398.898438 416.488281 C 397.949219 417.265625 396.964844 417.996094 395.941406 418.679688 C 394.921875 419.363281 393.871094 419.992188 392.785156 420.570312 C 391.703125 421.152344 390.59375 421.675781 389.460938 422.144531 C 388.324219 422.617188 387.171875 423.027344 385.996094 423.386719 C 384.820312 423.742188 383.628906 424.039062 382.425781 424.28125 C 381.21875 424.519531 380.007812 424.699219 378.785156 424.820312 C 377.5625 424.941406 376.335938 425 375.109375 425 C 373.882812 425 372.65625 424.941406 371.433594 424.820312 C 370.210938 424.699219 368.996094 424.519531 367.792969 424.28125 C 366.589844 424.039062 365.398438 423.742188 364.222656 423.386719 C 363.046875 423.027344 361.894531 422.617188 360.757812 422.144531 C 359.625 421.675781 358.515625 421.152344 357.433594 420.570312 C 356.347656 419.992188 355.296875 419.363281 354.277344 418.679688 C 353.253906 417.996094 352.269531 417.265625 351.320312 416.488281 C 350.371094 415.707031 349.460938 414.886719 348.59375 414.015625 C 347.722656 413.148438 346.902344 412.238281 346.121094 411.289062 C 345.34375 410.339844 344.613281 409.355469 343.929688 408.332031 C 343.246094 407.3125 342.617188 406.261719 342.039062 405.175781 C 341.457031 404.09375 340.933594 402.984375 340.464844 401.851562 C 339.992188 400.714844 339.582031 399.5625 339.222656 398.386719 C 338.867188 397.210938 338.570312 396.019531 338.328125 394.816406 C 338.089844 393.609375 337.910156 392.398438 337.789062 391.175781 C 337.667969 389.953125 337.609375 388.726562 337.609375 387.5 C 337.609375 386.273438 337.667969 385.046875 337.789062 383.824219 C 337.910156 382.601562 338.089844 381.386719 338.328125 380.183594 C 338.570312 378.980469 338.867188 377.789062 339.222656 376.613281 C 339.582031 375.4375 339.992188 374.285156 340.464844 373.148438 C 340.933594 372.015625 341.457031 370.90625 342.039062 369.824219 C 342.617188 368.738281 343.246094 367.6875 343.929688 366.667969 C 344.613281 365.644531 345.34375 364.660156 346.121094 363.710938 C 346.902344 362.761719 347.722656 361.851562 348.59375 360.984375 C 349.460938 360.113281 350.371094 359.292969 351.320312 358.511719 C 352.269531 357.734375 353.253906 357.003906 354.277344 356.320312 C 355.296875 355.636719 356.347656 355.007812 357.433594 354.429688 C 358.515625 353.847656 359.625 353.324219 360.757812 352.855469 C 361.894531 352.382812 363.046875 351.972656 364.222656 351.613281 C 365.398438 351.257812 366.589844 350.960938 367.792969 350.71875 C 368.996094 350.480469 370.210938 350.300781 371.433594 350.179688 C 372.65625 350.058594 373.882812 350 375.109375 350 C 376.335938 350 377.5625 350.058594 378.785156 350.179688 C 380.007812 350.300781 381.21875 350.480469 382.425781 350.71875 C 383.628906 350.960938 384.820312 351.257812 385.996094 351.613281 C 387.171875 351.972656 388.324219 352.382812 389.460938 352.855469 C 390.59375 353.324219 391.703125 353.847656 392.785156 354.429688 C 393.871094 355.007812 394.921875 355.636719 395.941406 356.320312 C 396.964844 357.003906 397.949219 357.734375 398.898438 358.511719 C 399.847656 359.292969 400.757812 360.113281 401.625 360.984375 C 402.496094 361.851562 403.316406 362.761719 404.097656 363.710938 C 404.875 364.660156 405.605469 365.644531 406.289062 366.667969 C 406.972656 367.6875 407.601562 368.738281 408.179688 369.824219 C 408.761719 370.90625 409.285156 372.015625 409.753906 373.148438 C 410.226562 374.285156 410.636719 375.4375 410.996094 376.613281 C 411.351562 377.789062 411.648438 378.980469 411.890625 380.183594 C 412.128906 381.386719 412.308594 382.601562 412.429688 383.824219 C 412.550781 385.046875 412.609375 386.273438 412.609375 387.5 Z M 412.609375 387.5 " fill-opacity="1" fill-rule="nonzero"/><path fill="#ea4335" d="M 262.5 436.25 C 262.5 464.546875 285.453125 487.5 313.75 487.5 L 375 487.5 L 375 462.5 L 312.34375 462.34375 C 298.59375 462.34375 287.5 449.546875 287.5 434.375 L 287.5 406.25 L 262.5 406.25 Z M 262.5 436.25 " fill-opacity="1" fill-rule="nonzero"/><path fill="#fbbc05" d="M 487.5 338.75 C 487.5 310.453125 464.546875 287.5 436.25 287.5 L 406.25 287.5 L 437.5 312.5 C 451.25 312.5 462.5 325.453125 462.5 340.625 L 462.5 387.5 L 487.5 387.5 Z M 487.5 338.75 " fill-opacity="1" fill-rule="nonzero"/><path fill="#4285f4" d="M 400 262.5 L 350 262.5 L 331.25 287.5 L 313.75 287.5 C 285.453125 287.5 262.5 310.453125 262.5 338.75 L 262.5 368.75 L 287.5 368.75 L 287.5 340.625 C 287.5 325.453125 298.75 312.5 312.5 312.5 L 437.5 312.5 Z M 400 262.5 " fill-opacity="1" fill-rule="nonzero"/></svg>